# xmcd
#
# Track frame offsets: 
#        150
#        15180
#        36162
#        47647
#        60597
#        73650
#        85255
#        112887
#        134122
#        155855
#        170170
#        184892
#        201312
#        223600
#        238417
#
# Disc length: 3459 seconds
#
# Revision: 4
# Processed by: cddbd v1.5.2PL0 Copyright (c) Steve Scherf et al.
# Submitted via: ExactAudioCopy v1.0b1
#
DISCID=e10d810f
DTITLE=Louisiana Red and Lefty Diz - Walked All Night Long
DYEAR=1997
DGENRE=Blues
TTITLE0=First Degree
TTITLE1=Bring My Machine Gun
TTITLE2=King Bee
TTITLE3=Stole From Me
TTITLE4=Too Poor To Die
TTITLE5=Walked All Night Long
TTITLE6=Cold White Sheet
TTITLE7=Pinetop
TTITLE8=Going Train Blues
TTITLE9=I´ll Pay The Price
TTITLE10=Going Down Georgia
TTITLE11=Ever Heard A Churchbell Sound
TTITLE12=Mary
TTITLE13=Got A Gal With A Dog Won´t Bark
TTITLE14=The Whole World
EXTD=
EXTT0=
EXTT1=
EXTT2=
EXTT3=
EXTT4=
EXTT5=
EXTT6=
EXTT7=
EXTT8=
EXTT9=
EXTT10=
EXTT11=
EXTT12=
EXTT13=
EXTT14=
PLAYORDER=
